<svg width="17" height="16" viewBox="0 0 17 16" fill="none" xmlns="http://www.w3.org/2000/svg">
<g id="icon/map-pin">
<rect width="16" height="16" transform="translate(0.5)" fill="white"/>
<path id="Vector" d="M13.8334 6.66665C13.8334 10.6666 8.50002 14.6666 8.50002 14.6666C8.50002 14.6666 3.16669 10.6666 3.16669 6.66665C3.16669 5.25216 3.72859 3.8956 4.72878 2.89541C5.72898 1.89522 7.08553 1.33331 8.50002 1.33331C9.91451 1.33331 11.2711 1.89522 12.2713 2.89541C13.2715 3.8956 13.8334 5.25216 13.8334 6.66665Z" fill="#8A99B0"/>
<path id="Vector_2" d="M8.50003 8.66666C9.6046 8.66666 10.5 7.77123 10.5 6.66666C10.5 5.56209 9.6046 4.66666 8.50003 4.66666C7.39546 4.66666 6.50003 5.56209 6.50003 6.66666C6.50003 7.77123 7.39546 8.66666 8.50003 8.66666Z" fill="#FEFEFE"/>
</g>
</svg>
