<svg width="16" height="16" viewBox="0 0 16 16" fill="none" xmlns="http://www.w3.org/2000/svg">
<g id="github">
<path id="githab" fill-rule="evenodd" clip-rule="evenodd" d="M0 8C0 3.58172 3.58172 0 8 0C12.4183 0 16 3.58172 16 8C16 12.4183 12.4183 16 8 16C3.58172 16 0 12.4183 0 8ZM4 8.08377C4 5.88193 5.78592 4.096 7.98776 4.096C10.1896 4.096 11.9755 5.88193 12 8.08377C12 9.84524 10.8746 11.3376 9.28439 11.8758C9.08868 11.9003 9.01529 11.778 9.01529 11.6801V10.5792C9.01529 10.2122 8.89297 9.96756 8.74619 9.84524C9.62692 9.74738 10.5566 9.42933 10.5566 7.88805C10.5566 7.44768 10.3853 7.08071 10.1407 6.8116C10.1426 6.80391 10.1453 6.79426 10.1485 6.78274C10.1859 6.64764 10.2946 6.25556 10.0917 5.75961C10.0917 5.75961 9.74924 5.66175 8.99081 6.17551C8.67279 6.10212 8.33026 6.05319 7.98776 6.05319C7.64526 6.05319 7.30276 6.07765 6.98471 6.17551C6.22629 5.66175 5.88379 5.75961 5.88379 5.75961C5.66757 6.28816 5.80524 6.69874 5.83344 6.78284L5.83487 6.78713C5.56573 7.08071 5.41895 7.42322 5.41895 7.86358C5.41895 9.40487 6.34863 9.74738 7.22937 9.84524C7.1315 9.9431 7.00919 10.1143 6.98471 10.3835C6.76453 10.4813 6.20184 10.6526 5.83487 10.041C5.83487 10.041 5.61469 9.64952 5.22324 9.62505C5.22324 9.62505 4.83182 9.62505 5.19879 9.8697C5.19879 9.8697 5.4679 9.99203 5.63913 10.4569C5.63913 10.4569 5.88379 11.2397 6.98471 10.9951V11.6801C6.98471 11.778 6.91132 11.9003 6.71561 11.8758C5.14984 11.3376 4 9.84524 4 8.08377Z" fill="black"/>
</g>
</svg>
