<svg width="17" height="16" viewBox="0 0 17 16" fill="none" xmlns="http://www.w3.org/2000/svg">
<g id="Setting_alt_line">
<path id="Star 2" d="M2.55444 9.2963C2.20196 8.66267 2.02573 8.34585 2.02573 7.99996C2.02573 7.65407 2.20196 7.33725 2.55444 6.70362L3.45394 5.08663L4.40455 3.49914C4.77705 2.87707 4.9633 2.56604 5.26285 2.39309C5.56241 2.22015 5.92489 2.21436 6.64987 2.2028L8.49998 2.17329L10.3501 2.2028C11.0751 2.21436 11.4376 2.22014 11.7371 2.39309C12.0367 2.56604 12.2229 2.87707 12.5954 3.49914L13.546 5.08663L14.4455 6.70362C14.798 7.33725 14.9742 7.65406 14.9742 7.99996C14.9742 8.34585 14.798 8.66267 14.4455 9.29629L13.546 10.9133L12.5954 12.5008C12.2229 13.1228 12.0367 13.4339 11.7371 13.6068C11.4376 13.7798 11.0751 13.7856 10.3501 13.7971L8.49998 13.8266L6.64987 13.7971C5.92489 13.7856 5.56241 13.7798 5.26285 13.6068C4.9633 13.4339 4.77705 13.1228 4.40455 12.5008L3.45394 10.9133L2.55444 9.2963Z" stroke="#FEFEFE" stroke-width="1.33333"/>
<circle id="Ellipse 5" cx="8.5" cy="7.99994" r="2" stroke="#FEFEFE" stroke-width="1.33333"/>
</g>
</svg>
