<svg width="24" height="23" viewBox="0 0 24 23" fill="none" xmlns="http://www.w3.org/2000/svg">
<path d="M12 21.0834C17.5228 21.0834 22 16.7928 22 11.5001C22 6.20735 17.5228 1.91675 12 1.91675C6.47715 1.91675 2 6.20735 2 11.5001C2 16.7928 6.47715 21.0834 12 21.0834Z" stroke="black" stroke-width="2" stroke-linecap="round" stroke-linejoin="round"/>
<path d="M15 8.96433C14.4626 8.38042 13.7523 7.96719 12.9638 7.77963C12.1753 7.59207 11.3458 7.63907 10.5859 7.91438C9.8259 8.18969 9.17143 8.68025 8.70954 9.32079C8.24765 9.96133 8.00024 10.7215 8.00024 11.5001C8.00024 12.2787 8.24765 13.0388 8.70954 13.6794C9.17143 14.3199 9.8259 14.8105 10.5859 15.0858C11.3458 15.3611 12.1753 15.4081 12.9638 15.2205C13.7523 15.033 14.4626 14.6197 15 14.0358" stroke="black" stroke-width="2" stroke-linecap="round" stroke-linejoin="round"/>
</svg>
